<svg width="13" height="19" viewBox="0 0 13 19" fill="none" xmlns="http://www.w3.org/2000/svg">
<path fillRule="evenodd" clipRule="evenodd" d="M6.37778 0.84375C2.85178 0.84375 0 3.69553 0 7.22153C0 11.0209 4.02711 16.2598 5.68533 18.2551C6.04978 18.6924 6.71489 18.6924 7.07933 18.2551C8.72844 16.2598 12.7556 11.0209 12.7556 7.22153C12.7556 3.69553 9.90378 0.84375 6.37778 0.84375ZM1.82222 7.22153C1.82222 4.70686 3.86311 2.66597 6.37778 2.66597C8.89244 2.66597 10.9333 4.70686 10.9333 7.22153C10.9333 9.84553 8.30933 13.7724 6.37778 16.2233C4.48267 13.7906 1.82222 9.81819 1.82222 7.22153ZM4.1 7.22153C4.1 8.47886 5.12044 9.49931 6.37778 9.49931C7.63511 9.49931 8.65555 8.47886 8.65555 7.22153C8.65555 5.96419 7.63511 4.94375 6.37778 4.94375C5.12044 4.94375 4.1 5.96419 4.1 7.22153Z" fill="#75A157"/>
</svg>
